<?xml version="1.0" encoding="utf-8"?>
<!-- Generator: Adobe Illustrator 19.2.1, SVG Export Plug-In . SVG Version: 6.00 Build 0)  -->
<svg version="1.1" id="layer" xmlns="http://www.w3.org/2000/svg" xmlns:xlink="http://www.w3.org/1999/xlink" x="0px" y="0px"
	 viewBox="0 0 652 652" style="enable-background:new 0 0 652 652;" xml:space="preserve">
<style type="text/css">
	.st0{fill:#FFFFFF;}
</style>
<rect x="20.8" y="335.7" width="599.1" height="8.5"/>
<g>
	<path d="M388.7,343.6c0,37.7-30.6,68.3-68.3,68.3c-37.7,0-68.3-30.6-68.3-68.3"/>
	<rect x="289.6" y="326.6" class="st0" width="58.9" height="35.8"/>
	<path class="st0" d="M320.4,360.1c-3.8-3.2-30.4-24.8-59.6-25.7v53.3c0,0,31.5-3.9,51.3,16c4.3,0,7.2,0,8.2,0c1.1,0,3.9,0,8.2,0
		c19.9-19.9,51.3-16,51.3-16v-53.3C350.8,335.2,324.2,356.9,320.4,360.1"/>
	<path d="M323.7,404.6c-1.6,0-2.8,0-3.3,0c-1,0-3.9,0-8.2,0h-0.4l-0.3-0.3c-13.9-13.9-33.6-16-44.1-16c-3.9,0-6.3,0.3-6.4,0.3
		l-1.1,0.1v-55.5l1.1,0c28,0.9,53.2,20.2,59.5,25.4c6.3-5.2,31.5-24.6,59.5-25.4l1.1,0v55.5l-1.1-0.1c0,0-2.5-0.3-6.4-0.3
		c-10.5,0-30.2,2.1-44.1,16l-0.3,0.3h-0.4C326.7,404.6,325,404.6,323.7,404.6 M320.4,402.6c1.1,0,3.7,0,7.8,0
		c14.4-14.2,34.5-16.3,45.2-16.3c2.5,0,4.4,0.1,5.5,0.2v-51.1c-28.6,1.4-54.9,23-57.9,25.4l-0.7,0.6l-0.7-0.6
		c-2.9-2.5-29.3-24.1-57.9-25.4v51.1c1.1-0.1,3-0.2,5.5-0.2c10.7,0,30.8,2.1,45.2,16.3C316.7,402.6,319.3,402.6,320.4,402.6"/>
	<path class="st0" d="M320.4,360.1c-3.1-3.5-24.9-27-48.7-27.7v49.4c0,0,27.7,3,43.9,19.3c2.9,0,4.2,0,4.8,0c0.6,0,1.9,0,4.8,0
		c16.3-16.3,43.9-19.3,43.9-19.3v-49.4C345.3,333.1,323.5,356.6,320.4,360.1"/>
	<path d="M321.7,402.1l-1.3,0l-1.3,0c-0.8,0-1.9,0-3.5,0l-0.4,0l-0.3-0.3c-15.8-15.8-43.1-19-43.3-19l-0.9-0.1v-51.4l1.1,0
		c22.7,0.7,43.2,21.2,48.7,27.2c5.5-6,26-26.5,48.7-27.2l1.1,0v51.4l-0.9,0.1c-0.3,0-27.5,3.2-43.3,19l-0.3,0.3l-0.4,0
		C323.6,402.1,322.4,402.1,321.7,402.1 M320.4,400l1.3,0c0.7,0,1.7,0,3.1,0c14.9-14.6,38.4-18.5,43.3-19.2v-47.4
		c-23.2,1.4-44.6,24.7-47,27.3l-0.8,0.9l-0.8-0.9c-2.4-2.7-23.7-26-47-27.3v47.4c5,0.7,28.5,4.6,43.3,19.2c1.4,0,2.4,0,3.1,0
		L320.4,400z"/>
	<path class="st0" d="M320.4,359c-2.4-3.6-17.1-24.1-37.8-28.6v48.1c0,0,21.9,5.3,36.5,19.9c0.4,0,0.7,0,0.9,0c-0.3,0-1.3,0,0.4,0
		c1.8,0,0.8,0,0.4,0c0.3,0,0.6,0,0.9,0c14.6-14.6,36.5-19.9,36.5-19.9v-48.1C336.7,334.9,322.7,355.4,320.4,359"/>
	<path d="M321.4,399.5l-1,0l-2,0l0-0.2l-0.1-0.1c-14.2-14.2-35.8-19.6-36-19.6l-0.8-0.2v-50.2l1.2,0.3c19.4,4.2,33.4,21.8,37.6,27.8
		c4.1-5.9,17.6-23.6,37.7-27.8l1.2-0.3v50.2l-0.8,0.2c-0.2,0.1-21.8,5.4-36,19.6l-0.1,0.1v0.3H321.4z M320.4,397.4l0.4,0v0l0.5,0
		c13-12.8,31.8-18.5,35.9-19.7v-46.1c-20.3,4.9-33.5,24-36,27.9l-0.8,1.3l-0.9-1.3c-2.6-3.8-16.4-22.9-36-27.9v46.1
		c4,1.1,22.8,6.8,35.9,19.7l0.5,0H320.4z"/>
	<path d="M105.7,162.8v2.1c-2.8,0.5-4.9,1.4-6.4,2.7c-2.1,1.9-3.9,4.9-5.5,8.8l-27.4,67.3h-2.4l-29.7-68.2c-1.5-3.5-2.6-5.7-3.2-6.5
		c-1-1.2-2.2-2.2-3.6-2.9c-1.4-0.7-3.3-1.1-5.7-1.3v-2.1h32.3v2.1c-3.7,0.4-6,1-7.1,1.9c-1.1,0.9-1.6,2-1.6,3.4c0,1.9,0.9,5,2.7,9.1
		l20.2,46.4l18.7-45.8c1.8-4.5,2.7-7.6,2.7-9.4c0-1.1-0.6-2.2-1.7-3.2c-1.1-1-3-1.8-5.7-2.2c-0.2,0-0.5-0.1-1-0.2v-2.1H105.7z"/>
	<path d="M186.1,241.9h-21.2l-26.9-37c-1.9,0.1-3.5,0.1-4.7,0.1c-0.5,0-1,0-1.6,0c-0.6,0-1.1,0-1.7-0.1V228c0,5,0.5,8.1,1.6,9.3
		c1.5,1.7,3.7,2.6,6.7,2.6h3.1v2.1h-34v-2.1h3c3.3,0,5.7-1.1,7.2-3.3c0.8-1.2,1.2-4.1,1.2-8.6v-51.3c0-5-0.5-8.1-1.6-9.3
		c-1.5-1.7-3.8-2.6-6.8-2.6h-3v-2.1h28.8c8.4,0,14.6,0.6,18.6,1.8c4,1.2,7.4,3.5,10.2,6.8c2.8,3.3,4.2,7.2,4.2,11.7
		c0,4.9-1.6,9.1-4.8,12.7c-3.2,3.6-8.1,6.1-14.8,7.6l16.4,22.7c3.7,5.3,6.9,8.7,9.6,10.5c2.7,1.7,6.2,2.8,10.5,3.3V241.9z
		 M130,201.1c0.7,0,1.4,0,1.9,0c0.5,0,1,0,1.3,0c7.5,0,13.1-1.6,16.9-4.9c3.8-3.3,5.7-7.4,5.7-12.4c0-4.9-1.5-8.9-4.6-12
		c-3.1-3.1-7.1-4.6-12.1-4.6c-2.2,0-5.2,0.4-9.1,1.2V201.1z"/>
	<path d="M227,161c10.3,0,19.1,3.9,26.7,11.7c7.5,7.8,11.3,17.5,11.3,29.2c0,12-3.8,22-11.4,29.9c-7.6,7.9-16.7,11.9-27.5,11.9
		c-10.9,0-20-3.9-27.4-11.6c-7.4-7.7-11.1-17.8-11.1-30.1c0-12.6,4.3-22.8,12.8-30.8C207.8,164.4,216.6,161,227,161 M225.9,165.2
		c-7.1,0-12.7,2.6-17,7.9c-5.3,6.5-8,16.1-8,28.7c0,12.9,2.8,22.9,8.3,29.8c4.2,5.3,9.8,7.9,16.8,7.9c7.4,0,13.5-2.9,18.4-8.7
		c4.8-5.8,7.3-14.9,7.3-27.4c0-13.5-2.7-23.6-8-30.3C239.3,167.8,233.4,165.2,225.9,165.2"/>
	<path d="M316.6,241.9L286,175.3v53c0,4.9,0.5,7.9,1.6,9.1c1.5,1.6,3.8,2.4,6.9,2.4h2.8v2.1h-27.9v-2.1h2.8c3.4,0,5.8-1,7.2-3
		c0.9-1.2,1.3-4.1,1.3-8.5v-51.9c0-3.5-0.4-6-1.2-7.6c-0.6-1.1-1.6-2.1-3.1-2.8c-1.5-0.8-3.9-1.1-7.2-1.1v-2.1h22.7l28.6,62l28.5-62
		h22.5v2.1h-2.8c-3.4,0-5.9,1-7.3,3c-0.9,1.2-1.3,4.1-1.3,8.5v51.9c0,4.9,0.6,7.9,1.7,9.1c1.5,1.6,3.8,2.4,6.9,2.4h2.8v2.1h-34v-2.1
		h2.8c3.4,0,5.9-1,7.2-3c0.9-1.2,1.3-4.1,1.3-8.5v-53l-30.6,66.6H316.6z"/>
	<path d="M427.1,215.5h-30.9l-5.4,12.4c-1.3,3.1-2,5.4-2,6.9c0,1.2,0.6,2.3,1.7,3.2c1.1,0.9,3.6,1.5,7.4,1.8v2.1H373v-2.1
		c3.3-0.6,5.4-1.4,6.4-2.3c2-1.9,4.2-5.7,6.6-11.5l28.3-65.1h1.8l27.5,65.9c2.2,5.3,4.2,8.8,6,10.3c1.8,1.6,4.3,2.5,7.6,2.7v2.1H426
		v-2.1c3.1-0.2,5.3-0.7,6.4-1.6c1.1-0.9,1.7-2,1.7-3.3c0-1.7-0.8-4.4-2.3-8.1L427.1,215.5z M425.3,211.2l-13.3-32l-13.9,32H425.3z"
		/>
	<path d="M455,162.8h21.3l48.7,59.5v-45.8c0-4.9-0.6-7.9-1.7-9.1c-1.5-1.6-3.8-2.4-6.9-2.4h-2.8v-2.1h27.9v2.1h-2.8
		c-3.4,0-5.8,1-7.2,3c-0.9,1.2-1.3,4.1-1.3,8.5v66.8H528l-52.3-63.9v49c0,4.9,0.5,7.9,1.6,9.1c1.5,1.6,3.8,2.4,6.9,2.4h2.8v2.1
		h-27.9v-2.1h2.8c3.4,0,5.9-1,7.3-3c0.9-1.2,1.3-4.1,1.3-8.5v-55.2c-2.3-2.7-4-4.5-5.2-5.3c-1.2-0.9-2.9-1.7-5.2-2.4
		c-1.1-0.4-2.8-0.5-5.1-0.5V162.8z"/>
	<path d="M550.6,195l-3.3-17.2c-0.9-4.8-1.4-8-1.4-9.7c0-2.5,0.5-4.3,1.5-5.4c1-1.1,2.4-1.7,4.2-1.7c1.8,0,3.2,0.6,4.4,1.7
		c1.2,1.1,1.7,2.7,1.7,4.5c0,1.4-0.5,5-1.5,10.6l-3.1,17.2H550.6z"/>
	<path d="M615.6,161v27.4h-2.1c-0.7-5.3-2-9.5-3.8-12.6c-1.8-3.1-4.4-5.6-7.8-7.4c-3.4-1.8-6.8-2.8-10.4-2.8
		c-4.1,0-7.4,1.2-10.1,3.7c-2.7,2.5-4,5.3-4,8.4c0,2.4,0.8,4.6,2.5,6.6c2.4,2.9,8.2,6.8,17.3,11.7c7.4,4,12.5,7,15.2,9.1
		c2.7,2.1,4.8,4.6,6.2,7.5c1.5,2.9,2.2,5.9,2.2,9c0,6-2.3,11.2-7,15.5c-4.7,4.3-10.7,6.5-18,6.5c-2.3,0-4.5-0.2-6.5-0.5
		c-1.2-0.2-3.7-0.9-7.5-2.1c-3.8-1.2-6.2-1.8-7.2-1.8c-1,0-1.7,0.3-2.3,0.9c-0.6,0.6-1,1.8-1.3,3.6H569v-27.1h2.1
		c1,5.7,2.4,10,4.1,12.8c1.7,2.8,4.3,5.2,7.9,7c3.5,1.9,7.4,2.8,11.6,2.8c4.9,0,8.7-1.3,11.6-3.9c2.8-2.6,4.2-5.6,4.2-9.2
		c0-2-0.5-3.9-1.6-5.9c-1.1-2-2.7-3.9-5-5.6c-1.5-1.2-5.7-3.6-12.5-7.4c-6.8-3.8-11.6-6.8-14.5-9c-2.9-2.3-5-4.7-6.5-7.5
		c-1.5-2.7-2.2-5.7-2.2-9c0-5.7,2.2-10.6,6.6-14.7c4.4-4.1,9.9-6.2,16.7-6.2c4.2,0,8.7,1,13.4,3.1c2.2,1,3.7,1.4,4.6,1.4
		c1,0,1.8-0.3,2.5-0.9c0.6-0.6,1.2-1.8,1.6-3.6H615.6z"/>
	<path d="M51.7,301.6c3.7,0.9,6.2,1.9,7.7,3.1c2.1,1.7,3.2,3.9,3.2,6.7c0,2.9-1.2,5.3-3.5,7.2c-2.9,2.3-7,3.4-12.5,3.4H27.1v-1
		c1.8,0,3-0.2,3.7-0.5c0.6-0.3,1.1-0.8,1.4-1.3c0.3-0.5,0.4-1.9,0.4-4v-25c0-2.1-0.1-3.4-0.4-4c-0.3-0.5-0.7-1-1.4-1.3
		c-0.7-0.3-1.9-0.5-3.6-0.5v-1h18.5c4.4,0,7.5,0.4,9.4,1.2c1.8,0.8,3.3,2,4.3,3.5c1.1,1.6,1.6,3.2,1.6,5c0,1.9-0.7,3.5-2,5
		C57.5,299.6,55.2,300.8,51.7,301.6 M41.4,300.9c2.7,0,4.7-0.3,6-0.9c1.3-0.6,2.3-1.5,3-2.6c0.7-1.1,1-2.5,1-4.2
		c0-1.7-0.3-3.1-1-4.2c-0.7-1.1-1.7-1.9-2.9-2.5c-1.3-0.6-3.3-0.9-6.1-0.8V300.9z M41.4,303v12.4v1.4c0,1,0.3,1.8,0.8,2.3
		c0.5,0.5,1.3,0.8,2.3,0.8c1.5,0,2.9-0.3,4.1-1c1.3-0.7,2.2-1.6,2.9-2.9c0.7-1.3,1-2.7,1-4.3c0-1.8-0.4-3.4-1.1-4.8
		c-0.8-1.4-1.9-2.4-3.3-3C46.5,303.2,44.3,303,41.4,303"/>
	<path d="M115.1,283c6.1-0.2,11.1,1.6,14.9,5.4c3.8,3.8,5.7,8.5,5.7,14.2c0,4.9-1.4,9.2-4.3,12.9c-3.8,4.9-9.1,7.4-16,7.4
		c-6.9,0-12.3-2.3-16.1-7c-3-3.7-4.5-8.1-4.5-13.2c0-5.7,1.9-10.5,5.8-14.3C104.6,284.5,109.4,282.7,115.1,283 M115.4,284.8
		c-3.5,0-6.2,1.8-8.1,5.4c-1.5,2.9-2.3,7.2-2.3,12.7c0,6.6,1.2,11.4,3.5,14.5c1.6,2.2,3.9,3.3,6.8,3.3c2,0,3.6-0.5,4.9-1.4
		c1.7-1.2,3-3.1,3.9-5.8c0.9-2.7,1.4-6.1,1.4-10.4c0-5.1-0.5-8.9-1.4-11.4c-1-2.5-2.2-4.3-3.6-5.3
		C119,285.3,117.3,284.8,115.4,284.8"/>
	<path d="M188.2,283c6.1-0.2,11.1,1.6,14.9,5.4c3.8,3.8,5.7,8.5,5.7,14.2c0,4.9-1.4,9.2-4.3,12.9c-3.8,4.9-9.1,7.4-16,7.4
		c-6.9,0-12.3-2.3-16.1-7c-3-3.7-4.5-8.1-4.5-13.2c0-5.7,1.9-10.5,5.8-14.3C177.8,284.5,182.5,282.7,188.2,283 M188.6,284.8
		c-3.5,0-6.2,1.8-8.1,5.4c-1.5,2.9-2.3,7.2-2.3,12.7c0,6.6,1.2,11.4,3.5,14.5c1.6,2.2,3.9,3.3,6.8,3.3c2,0,3.6-0.5,4.9-1.4
		c1.7-1.2,3-3.1,3.9-5.8c0.9-2.7,1.4-6.1,1.4-10.4c0-5.1-0.5-8.9-1.4-11.4c-0.9-2.5-2.2-4.3-3.6-5.3
		C192.2,285.3,190.5,284.8,188.6,284.8"/>
	<path d="M263.2,298.2l13.5,16.9c1.9,2.4,3.6,4,4.9,4.9c1,0.6,2.1,0.9,3.2,0.9v1h-20v-1c1.3-0.1,2.1-0.3,2.5-0.6
		c0.4-0.3,0.6-0.6,0.6-1.1c0-0.8-0.9-2.3-2.6-4.5l-8.8-11.1l-1.4,1.2v10.5c0,2,0.1,3.3,0.3,3.8c0.2,0.5,0.7,0.9,1.3,1.3
		c0.6,0.4,1.7,0.5,3.1,0.5v1h-19.3v-1h1.3c1.1,0,2-0.2,2.7-0.6c0.5-0.3,0.9-0.7,1.1-1.4c0.2-0.5,0.3-1.7,0.3-3.6v-25.3
		c0-2-0.1-3.2-0.3-3.7c-0.2-0.5-0.6-0.9-1.3-1.3c-0.6-0.4-1.5-0.6-2.6-0.6h-1.3v-1h19.1v1c-1.3,0-2.3,0.2-3,0.6
		c-0.5,0.3-0.9,0.7-1.2,1.4c-0.2,0.5-0.3,1.7-0.3,3.7v12l14.3-11.5c2-1.6,3-2.9,3-3.9c0-0.7-0.4-1.3-1.2-1.7
		c-0.4-0.2-1.4-0.3-3.1-0.4v-1h15v1c-1.3,0.1-2.4,0.3-3.2,0.7c-0.8,0.4-2.5,1.7-5.3,4L263.2,298.2z"/>
	<path d="M339.4,282.7l0.3,12.8h-1.1c-0.6-3.2-1.9-5.8-4.1-7.8c-2.2-2-4.5-2.9-7-2.9c-1.9,0-3.5,0.5-4.6,1.5c-1.1,1-1.7,2.2-1.7,3.6
		c0,0.9,0.2,1.6,0.6,2.3c0.5,0.9,1.4,1.8,2.6,2.6c0.9,0.6,2.9,1.7,6.2,3.3c4.5,2.2,7.5,4.3,9.1,6.2c1.6,2,2.3,4.2,2.3,6.7
		c0,3.2-1.3,6-3.8,8.3c-2.5,2.3-5.7,3.5-9.6,3.5c-1.2,0-2.4-0.1-3.4-0.4c-1.1-0.2-2.4-0.7-4.1-1.4c-0.9-0.4-1.7-0.6-2.2-0.6
		c-0.5,0-1,0.2-1.6,0.6c-0.5,0.4-1,1-1.3,1.7h-1v-14.5h1c0.8,4.1,2.4,7.2,4.8,9.4c2.4,2.1,4.9,3.2,7.7,3.2c2.1,0,3.8-0.6,5.1-1.7
		c1.3-1.2,1.9-2.5,1.9-4c0-0.9-0.2-1.8-0.7-2.6c-0.5-0.8-1.2-1.7-2.2-2.4c-1-0.8-2.7-1.8-5.2-3c-3.5-1.7-6-3.2-7.5-4.4
		c-1.5-1.2-2.7-2.6-3.5-4c-0.8-1.5-1.2-3.1-1.2-4.9c0-3.1,1.1-5.7,3.4-7.8c2.3-2.1,5.1-3.2,8.5-3.2c1.2,0,2.5,0.2,3.6,0.5
		c0.9,0.2,2,0.6,3.2,1.3c1.3,0.6,2.2,0.9,2.7,0.9c0.5,0,0.9-0.2,1.2-0.5c0.3-0.3,0.5-1,0.8-2.2H339.4z"/>
	<path d="M409,283.5v10.3h-1c-0.6-2.4-1.3-4.1-2-5.2c-0.7-1-1.8-1.9-3-2.5c-0.7-0.3-2-0.5-3.8-0.5h-2.8v29.7c0,2,0.1,3.2,0.3,3.7
		c0.2,0.5,0.6,0.9,1.3,1.3c0.6,0.4,1.5,0.6,2.6,0.6h1.3v1h-20v-1h1.3c1.1,0,2-0.2,2.7-0.6c0.5-0.3,0.9-0.7,1.2-1.4
		c0.2-0.5,0.3-1.7,0.3-3.6v-29.7h-2.8c-2.6,0-4.5,0.5-5.7,1.6c-1.7,1.5-2.7,3.7-3.1,6.5h-1v-10.3H409z"/>
	<path d="M460.5,283c6.1-0.2,11.1,1.6,14.9,5.4c3.8,3.8,5.7,8.5,5.7,14.2c0,4.9-1.4,9.2-4.3,12.9c-3.8,4.9-9.1,7.4-16,7.4
		c-6.9,0-12.3-2.3-16.1-7c-3-3.7-4.5-8.1-4.5-13.2c0-5.7,1.9-10.5,5.8-14.3C450,284.5,454.8,282.7,460.5,283 M460.8,284.8
		c-3.5,0-6.2,1.8-8.1,5.4c-1.5,2.9-2.3,7.2-2.3,12.7c0,6.6,1.2,11.4,3.5,14.5c1.6,2.2,3.9,3.3,6.8,3.3c2,0,3.6-0.5,4.9-1.4
		c1.7-1.2,3-3.1,3.9-5.8c0.9-2.7,1.4-6.1,1.4-10.4c0-5.1-0.5-8.9-1.4-11.4c-0.9-2.5-2.2-4.3-3.6-5.3
		C464.4,285.3,462.7,284.8,460.8,284.8"/>
	<path d="M526.7,304.4v10.9c0,2.1,0.1,3.4,0.4,3.9c0.3,0.5,0.7,1,1.4,1.3c0.6,0.3,1.9,0.5,3.6,0.5v1h-19.8v-1c1.8,0,3-0.2,3.7-0.5
		c0.6-0.3,1.1-0.8,1.3-1.3c0.3-0.5,0.4-1.8,0.4-3.9v-25.1c0-2.1-0.1-3.4-0.4-3.9c-0.3-0.5-0.7-1-1.4-1.3c-0.6-0.3-1.9-0.5-3.6-0.5
		v-1h17.9c4.7,0,8.1,0.3,10.2,1c2.2,0.6,3.9,1.8,5.3,3.6c1.4,1.7,2,3.8,2,6.1c0,2.8-1,5.2-3.1,7c-1.3,1.2-3.1,2-5.5,2.6l9.2,13
		c1.2,1.7,2.1,2.7,2.6,3.1c0.8,0.6,1.7,0.9,2.7,1v1.1h-12l-12.4-17.5H526.7z M526.7,285.6v16.8h1.6c2.6,0,4.6-0.2,5.9-0.7
		c1.3-0.5,2.3-1.4,3.1-2.6c0.7-1.3,1.1-2.9,1.1-4.9c0-2.9-0.7-5.1-2.1-6.5c-1.4-1.4-3.6-2.1-6.7-2.1H526.7z"/>
	<path d="M597,285.7v15.7h0.8c2.5,0,4.2-0.8,5.4-2.3c1.1-1.5,1.8-3.8,2.1-6.8h1v20.1h-1c-0.2-2.2-0.7-4-1.4-5.4
		c-0.7-1.4-1.6-2.3-2.6-2.8c-1-0.5-2.4-0.7-4.2-0.7v10.8c0,2.1,0.1,3.4,0.3,3.9c0.2,0.5,0.5,0.9,1,1.2c0.5,0.3,1.3,0.5,2.4,0.5h2.3
		c3.6,0,6.4-0.8,8.6-2.5c2.2-1.7,3.7-4.2,4.7-7.6h1l-1.7,12.2h-33.1v-1h1.3c1.1,0,2-0.2,2.7-0.6c0.5-0.3,0.9-0.7,1.1-1.4
		c0.2-0.5,0.3-1.7,0.3-3.6v-25.3c0-1.8,0-2.9-0.1-3.3c-0.2-0.7-0.5-1.2-1-1.6c-0.7-0.5-1.7-0.8-2.9-0.8h-1.3v-1h32.1v11.2h-1
		c-0.6-2.8-1.3-4.7-2.3-5.9c-1-1.2-2.4-2.1-4.2-2.6c-1.1-0.3-3.1-0.5-6-0.5H597z"/>
	<rect x="20.8" y="248.5" width="599.1" height="3.4"/>
	<rect x="20.8" y="261.7" width="599.1" height="6.8"/>
	<path d="M320.4,470.9c-70.6,0-128.2-56.3-130.5-126.3h-169v-8.5h177.5v4.3c0,67.3,54.7,122,122,122c67.3,0,122-54.7,122-122v-4.3
		h177.5v8.5h-169C448.6,414.7,391,470.9,320.4,470.9"/>
	<path d="M320.4,483.3c-35.8,0-70-13.3-96.4-37.4c-25.8-23.6-42-55.6-45.7-90.2H20.8v-3.4h160.7l0.1,1.5
		c6.8,71.9,66.5,126.1,138.8,126.1c72.3,0,131.9-54.2,138.8-126.1l0.1-1.5h160.6v3.4H462.5c-3.7,34.6-19.9,66.6-45.7,90.2
		C390.4,470,356.2,483.3,320.4,483.3"/>
	<rect x="319.2" y="357.6" width="2.4" height="40.6"/>
	<path class="st0" d="M388.6,344.2c-0.3,37.5-30.7,67.8-68.3,67.8c-37.5,0-68-30.3-68.3-67.7h0v72.8h136.6L388.6,344.2L388.6,344.2z
		"/>
	<path d="M228,357.9c0.3,1.6,0.1,3-0.8,4.3c-0.9,1.3-2.1,2.2-3.7,2.5c-1.6,0.3-3,0.1-4.3-0.8c-1.3-0.9-2.2-2.1-2.5-3.6
		c-0.3-1.6-0.1-3,0.8-4.4c0.9-1.3,2.1-2.2,3.7-2.5c1.6-0.3,3-0.1,4.4,0.8C226.9,355.1,227.7,356.3,228,357.9"/>
	<path d="M247.5,386.4l-8.2,4.1l-0.4-0.7c1.9-1.3,3.2-3,3.8-5c0.6-2,0.5-3.8-0.2-5.4c-0.6-1.2-1.4-2.1-2.4-2.5c-1-0.4-1.9-0.4-2.8,0
		c-0.5,0.3-1,0.6-1.3,1.1c-0.4,0.6-0.7,1.5-0.9,2.5c-0.1,0.8-0.2,2.4-0.2,5c0,3.6-0.5,6.2-1.2,7.8c-0.8,1.6-2,2.8-3.6,3.6
		c-2.1,1-4.2,1-6.5,0.1c-2.3-0.9-4-2.6-5.2-5.1c-0.4-0.8-0.6-1.6-0.8-2.3c-0.2-0.8-0.3-1.8-0.3-3c0-0.7-0.1-1.2-0.3-1.6
		c-0.2-0.3-0.4-0.6-0.8-0.8c-0.4-0.2-0.9-0.3-1.5-0.3l-0.3-0.7l9.3-4.5l0.3,0.7c-2.4,1.8-3.9,3.8-4.5,6c-0.7,2.2-0.6,4.2,0.3,5.9
		c0.6,1.4,1.5,2.3,2.7,2.7c1.1,0.5,2.2,0.4,3.2,0c0.6-0.3,1.1-0.7,1.5-1.3c0.4-0.6,0.7-1.3,0.9-2.2c0.2-0.9,0.3-2.3,0.3-4.3
		c0-2.8,0.2-4.8,0.5-6.2c0.3-1.4,0.8-2.5,1.5-3.5c0.7-1,1.6-1.8,2.8-2.3c2-0.9,4-1,6.1-0.2c2.1,0.8,3.6,2.3,4.7,4.5
		c0.4,0.8,0.7,1.6,0.8,2.5c0.1,0.6,0.2,1.5,0.2,2.5c0,1,0.1,1.7,0.2,2c0.1,0.3,0.4,0.5,0.6,0.6c0.3,0.1,0.8,0,1.7-0.2L247.5,386.4z"
		/>
	<path d="M236.2,416.6l-0.6,0.5l-8.9-11.3l0.6-0.5l0.6,0.7c0.5,0.6,1,1,1.5,1.2c0.4,0.2,0.8,0.2,1.3,0c0.3-0.1,1.1-0.6,2.1-1.4
		l14.2-11.2c1.1-0.9,1.7-1.5,1.9-1.8c0.2-0.3,0.2-0.8,0.2-1.3c-0.1-0.5-0.3-1.1-0.8-1.7l-0.6-0.7l0.6-0.5l8.9,11.3l-0.6,0.5
		l-0.6-0.7c-0.5-0.6-1-1-1.5-1.2c-0.4-0.2-0.8-0.2-1.3,0c-0.3,0.1-1.1,0.6-2.1,1.4l-14.2,11.2c-1.1,0.9-1.7,1.5-1.9,1.8
		c-0.2,0.3-0.2,0.8-0.2,1.3c0.1,0.5,0.3,1.1,0.8,1.7L236.2,416.6z"/>
	<path d="M265.4,407.1l2,21.6l6.5-9.8c0.9-1.4,1.3-2.4,1.2-3.2c-0.1-1-0.8-1.9-2.1-2.7l0.4-0.6l7.6,5l-0.4,0.6
		c-1.1-0.5-1.8-0.8-2.3-0.8c-0.5,0-0.9,0.1-1.4,0.5c-0.5,0.3-1.1,1-1.8,2.1l-12.5,19.1l-0.6-0.4l-2.9-29.3l-9.6,14.6
		c-0.9,1.3-1.1,2.4-0.8,3.3c0.3,0.9,0.8,1.5,1.6,2.1l0.5,0.4l-0.4,0.6l-8.1-5.3l0.4-0.6c1.3,0.8,2.3,1.1,3.1,1
		c0.8-0.2,1.6-0.9,2.4-2.1l10.6-16.2l-0.1-0.9c-0.1-0.9-0.3-1.6-0.5-2c-0.2-0.4-0.7-0.9-1.4-1.4l0.4-0.6L265.4,407.1z"/>
	<path d="M306.6,423.1l-2.4,9.2l-0.8-0.2c0.1-2.5-0.5-4.7-1.7-6.4c-1.2-1.7-2.8-2.8-4.8-3.3c-1.7-0.4-3.3-0.4-4.9,0.2
		c-1.6,0.6-3,1.6-4,2.9c-1.3,1.7-2.3,3.8-3,6.2c-0.6,2.4-0.9,4.6-0.8,6.7c0.1,2.1,0.6,3.8,1.6,5.2s2.5,2.3,4.6,2.8
		c1.7,0.4,3.3,0.5,4.9,0.1c1.6-0.4,3.4-1.2,5.4-2.6l-0.6,2.3c-1.9,1.2-3.7,1.9-5.5,2.1c-1.8,0.3-3.8,0.1-5.9-0.5
		c-2.8-0.8-5.2-2-7.1-3.7c-1.9-1.7-3.2-3.8-3.8-6.2c-0.6-2.4-0.6-4.9,0-7.3c0.7-2.5,2-4.7,3.9-6.7c1.9-1.9,4.2-3.2,6.8-3.8
		c2.6-0.7,5.1-0.6,7.7,0c1.9,0.5,3.7,1.4,5.6,2.8c1.1,0.8,1.8,1.2,2.1,1.3c0.4,0.1,0.8,0.1,1.2-0.2c0.4-0.2,0.7-0.7,1-1.3
		L306.6,423.1z"/>
	<path d="M319.7,425.9l-0.2,11.2l0.5,0c1.7,0,3-0.5,3.8-1.6c0.8-1.1,1.3-2.7,1.6-4.8l0.8,0l-0.3,14.4l-0.8,0
		c-0.1-1.6-0.4-2.9-0.9-3.9c-0.5-1-1.1-1.7-1.8-2.1c-0.7-0.4-1.7-0.6-3-0.6l-0.2,7.7c0,1.5,0,2.4,0.1,2.8c0.1,0.3,0.4,0.6,0.7,0.8
		c0.3,0.2,0.9,0.3,1.7,0.4l1.6,0c2.6,0.1,4.6-0.5,6.2-1.6c1.6-1.1,2.7-2.9,3.4-5.3l0.8,0l-1.4,8.7l-23.7-0.5l0-0.7l0.9,0
		c0.8,0,1.4-0.1,1.9-0.4c0.4-0.2,0.6-0.5,0.8-1c0.2-0.3,0.2-1.2,0.3-2.5l0.4-18c0-1.2,0-2-0.1-2.3c-0.1-0.5-0.4-0.8-0.7-1.1
		c-0.5-0.4-1.2-0.6-2.1-0.6l-0.9,0l0-0.7l22.9,0.5l-0.2,8.1l-0.8,0c-0.3-2-0.9-3.4-1.6-4.3c-0.7-0.9-1.7-1.5-3-2
		c-0.8-0.3-2.2-0.4-4.2-0.5L319.7,425.9z"/>
	<path d="M359.2,416.5l8.9,20.6c0.7,1.5,1.2,2.5,1.5,2.9c0.3,0.4,0.8,0.6,1.3,0.7c0.6,0.1,1.3-0.1,2.3-0.5l0.6-0.3l0.3,0.7
		l-13.2,5.7l-0.3-0.7l0.7-0.3c1.1-0.5,1.8-0.9,2.1-1.4c0.3-0.4,0.5-0.9,0.5-1.4c0-0.5-0.4-1.5-1.1-3.1l-5.7-13
		c-0.5-1.2-0.9-1.9-1.1-2.1c-0.2-0.2-0.6-0.4-0.9-0.5c-0.4-0.1-0.8,0-1.2,0.1c-0.6,0.3-1.3,0.8-2,1.6l-0.6-0.5l7.4-8.2L359.2,416.5z
		"/>
	<path d="M382,416.2c2.4-0.1,4.3,0.1,5.6,0.6s2.5,1.4,3.5,2.6c1.4,1.7,1.9,3.7,1.5,5.9c-0.4,2.2-1.7,4.2-3.9,6
		c-2.1,1.7-4.2,2.5-6.2,2.3c-2-0.1-3.6-0.9-4.8-2.5c-0.9-1.1-1.4-2.4-1.4-3.8c0-1.4,0.5-3.1,1.5-5c-2.7,0-4.7-0.1-5.8-0.6
		c-1.1-0.4-2.1-1.2-3-2.3c-1.1-1.4-1.5-3.2-1.2-5.2c0.4-2.1,1.6-3.9,3.7-5.6c2-1.6,4-2.4,5.9-2.3c1.9,0.1,3.3,0.8,4.4,2.2
		c0.8,1,1.2,2.1,1.2,3.4C383.2,413.2,382.8,414.6,382,416.2 M380.2,416.4c0-0.8-0.2-1.7-0.5-2.5c-0.3-0.8-0.8-1.6-1.4-2.4
		c-1.1-1.4-2.2-2.2-3.4-2.5c-0.9-0.2-1.7,0-2.5,0.6c-0.7,0.6-1.1,1.3-1.2,2.2c-0.1,0.9,0.2,1.7,0.8,2.5c0.6,0.8,1.5,1.4,2.7,1.7
		C375.9,416.5,377.7,416.6,380.2,416.4 M379.7,422.2c-0.1,0.6-0.1,1-0.1,1.4c0.1,0.5,0.3,1.2,0.7,2.1c0.4,0.8,0.9,1.6,1.5,2.4
		c0.8,1,1.6,1.7,2.4,2.2c0.8,0.5,1.5,0.7,2.2,0.6c0.7-0.1,1.3-0.3,1.8-0.7c0.8-0.6,1.2-1.4,1.3-2.4c0.1-1-0.3-2-1-2.9
		C386.8,422.8,383.9,421.9,379.7,422.2"/>
	<path d="M402.4,419l-0.5-0.3c0.9-2.1,1.5-4.1,1.6-5.9c0.1-1.8-0.1-3.6-0.7-5.2c-0.6-1.6-1.6-3.1-2.9-4.6c-0.2,0.9-0.4,1.7-0.6,2.2
		c-0.2,0.6-0.5,1.1-0.9,1.6c-1.3,1.7-2.9,2.6-4.9,2.8c-2,0.2-4.1-0.5-6.2-2.1c-1.4-1.1-2.5-2.4-3.3-3.9c-0.7-1.5-1-3.1-0.8-4.7
		c0.2-1.6,0.7-3,1.6-4.2c1-1.3,2.3-2.2,3.8-2.8c1.6-0.6,3.3-0.7,5.2-0.3c1.9,0.4,3.7,1.2,5.5,2.6c2.3,1.7,4.1,4,5.4,6.7
		c1.3,2.7,1.7,5.6,1.3,8.8C405.8,412.8,404.5,415.9,402.4,419 M398.8,401.7c-1.1-1-2.1-1.9-3.1-2.6c-2-1.5-3.9-2.6-6-3.5
		c-1.1-0.5-2.1-0.6-2.9-0.4c-0.4,0.1-0.8,0.3-1.1,0.8c-0.4,0.5-0.5,1.1-0.3,1.8c0.3,0.9,1.4,2,3.1,3.4c3,2.3,5.3,3.5,7,3.6
		c1.1,0.1,1.9-0.3,2.5-1C398.4,403.3,398.6,402.6,398.8,401.7"/>
	<path d="M407,394.1l-10-19.5l1.1-2.2l15.8,7.8l1.1-2.2l3.7,1.9l-1.1,2.2l5.5,2.7l-2.5,5l-5.5-2.7l-4.4,8.9L407,394.1z M407.9,392.3
		l3.5-7.1l-9.7-4.8L407.9,392.3z"/>
	<path d="M412.3,357.1c0.4-1.5,1.3-2.7,2.7-3.5c1.4-0.8,2.8-1,4.4-0.5c1.5,0.4,2.7,1.3,3.5,2.7c0.8,1.4,1,2.8,0.6,4.4
		c-0.4,1.5-1.3,2.7-2.7,3.5c-1.4,0.8-2.8,1-4.4,0.6c-1.5-0.4-2.7-1.3-3.5-2.7C412.1,360.1,411.9,358.6,412.3,357.1"/>
</g>
</svg>
